<svg width="82" height="82" viewBox="0 0 82 82" fill="none" xmlns="http://www.w3.org/2000/svg">
<path d="M16.67 81.9198C15.33 81.7598 13.99 81.6398 12.65 81.4398C10.23 81.0598 7.86996 80.4598 5.70996 79.2198C3.34996 77.8798 2.26996 75.6598 1.52996 73.2398C0.249962 68.9798 0.00996177 64.5998 0.129962 60.1998C0.269962 55.3798 0.949962 50.6198 2.12996 45.9398C5.40996 33.0998 11.63 22.0798 22.09 13.7198C28.47 8.61979 35.69 5.15978 43.51 2.89978C50.19 0.979783 56.97 -0.000217587 63.91 0.239782C67.51 0.359782 71.07 0.799783 74.45 2.13978C77.11 3.17978 78.81 5.05978 79.75 7.73978C81.31 12.2198 81.57 16.8598 81.41 21.5198C81.19 28.1798 79.95 34.6598 77.79 40.9798C74.43 50.8198 69.17 59.4598 61.31 66.3798C54.91 72.0198 47.55 75.9598 39.47 78.5998C34.03 80.3598 28.47 81.4798 22.77 81.8198C22.53 81.8398 22.31 81.8998 22.07 81.9598C20.29 81.9198 18.49 81.9198 16.67 81.9198ZM74.01 37.2398C73.87 37.0798 73.71 36.8798 73.53 36.6998C69.59 32.7398 65.63 28.7998 61.67 24.8398C56.11 19.2798 50.53 13.6998 44.97 8.11979C44.55 7.69979 44.21 7.57978 43.65 7.79978C42.41 8.27978 41.13 8.63979 39.89 9.11979C32.51 11.9198 25.93 15.9798 20.41 21.6798C13.85 28.4398 9.70996 36.5598 7.18996 45.5598C7.12996 45.8198 7.26996 46.2398 7.46996 46.4198C16.73 55.6998 26.01 64.9798 35.27 74.2598C35.59 74.5798 35.89 74.6798 36.31 74.5198C37.57 74.0798 38.83 73.6998 40.09 73.2598C47.03 70.7398 53.35 67.1398 58.83 62.1398C65.49 56.0598 70.03 48.5798 73.05 40.1198C73.37 39.1998 73.67 38.2598 74.01 37.2398ZM50.13 6.11978C58.61 14.5998 67.05 23.0398 75.43 31.4198C76.27 27.4598 76.71 23.2798 76.69 19.0798C76.67 15.7598 76.39 12.4398 75.27 9.25979C74.77 7.81979 73.85 6.77978 72.39 6.41978C70.25 5.89978 68.11 5.39978 65.93 5.11978C62.59 4.69978 59.23 4.89978 55.91 5.27978C53.91 5.51978 51.95 5.85978 50.13 6.11978ZM5.80996 51.7598C5.76996 51.9598 5.68996 52.2198 5.66996 52.4798C5.40996 55.3398 5.02996 58.1998 4.92996 61.0598C4.80996 64.6598 5.12996 68.2198 6.06996 71.7398C6.66996 73.9198 7.82996 75.4798 10.11 75.9798C11.93 76.3798 13.75 76.7798 15.59 76.9798C19.25 77.3798 22.93 77.0998 26.57 76.6398C27.75 76.4998 28.93 76.2598 30.07 76.0598C21.95 67.9198 13.89 59.8398 5.80996 51.7598Z" fill="url(#paint0_linear_0_1)"/>
<path d="M45.6298 32.4197C46.5898 31.4597 47.4298 30.6197 48.4098 29.6197C47.8498 29.1197 47.2498 28.6197 46.6898 28.0597C45.5698 26.9397 45.5098 25.5197 46.4898 24.5197C47.5098 23.4997 48.9298 23.5597 50.0898 24.7197C50.6298 25.2597 51.1498 25.8397 51.7898 26.5397C52.2698 26.0197 52.6298 25.5597 53.0498 25.1597C54.1098 24.1397 55.5898 24.1197 56.5498 25.0997C57.4898 26.0797 57.4498 27.4597 56.4298 28.5197C56.0498 28.9197 55.6098 29.2797 54.9898 29.8397C55.6898 30.4397 56.3098 30.9197 56.8698 31.4797C58.0098 32.6197 58.0898 34.0797 57.0698 35.0797C56.0698 36.0597 54.6498 35.9997 53.5298 34.8997C52.9698 34.3397 52.4098 33.7597 51.8898 33.2397C50.9898 34.1397 50.1498 34.9797 49.1898 35.9397C49.7298 36.4397 50.3298 36.9597 50.8898 37.5197C52.0298 38.6797 52.0898 40.1197 51.0498 41.1197C50.0298 42.0997 48.6498 42.0197 47.5098 40.8997C46.9698 40.3597 46.4498 39.7997 45.6898 39.0197C45.2298 39.5797 44.8698 40.0797 44.4298 40.5397C44.0098 40.9797 43.5498 41.3797 43.0298 41.8597C43.7298 42.5597 44.3698 43.1797 44.9698 43.8397C45.6298 44.5397 45.7898 45.3797 45.4498 46.2797C45.1298 47.1597 44.4698 47.6597 43.5698 47.8197C42.7498 47.9597 42.0498 47.6597 41.4698 47.0997C40.8898 46.5197 40.3298 45.9197 39.7498 45.3197C38.8498 46.2597 38.0498 47.1197 37.1498 48.0597C37.6098 48.5197 38.1698 49.0397 38.7098 49.5797C39.8298 50.7397 39.8898 52.1997 38.8698 53.1797C37.8698 54.1397 36.4298 54.0597 35.3298 52.9597C34.8098 52.4397 34.3098 51.8797 33.8498 51.3997C32.9898 52.2797 32.1898 53.0797 31.3298 53.9597C31.8498 54.4797 32.5098 55.1197 33.1298 55.7997C33.7698 56.4997 33.9698 57.3397 33.6298 58.2397C33.2898 59.1397 32.6298 59.6597 31.6698 59.7997C30.8698 59.8997 30.1898 59.6397 29.6498 59.0597C29.0698 58.4397 28.4898 57.8197 27.9498 57.1997C25.9098 58.6597 24.8298 58.7797 23.8298 57.7397C22.8098 56.6997 22.9498 55.5797 24.4098 53.7197C23.8298 53.1597 23.2098 52.6197 22.6298 52.0397C21.5698 50.9597 21.5298 49.5397 22.4898 48.5597C23.4698 47.5797 24.9298 47.6197 26.0298 48.6997C26.5898 49.2597 27.1298 49.8597 27.6698 50.4197C28.5298 49.5397 29.3098 48.7197 30.1698 47.8397C29.6098 47.2797 28.9498 46.6197 28.3098 45.9197C27.6498 45.2197 27.4898 44.3597 27.8098 43.4797C28.1298 42.5797 28.8098 42.0597 29.7698 41.9197C30.5898 41.7997 31.2898 42.1197 31.8498 42.6997C32.4498 43.2997 33.0298 43.9197 33.6098 44.4997C34.5098 43.5797 35.3498 42.7197 36.2898 41.7797C35.7298 41.2597 35.0898 40.6797 34.4898 40.0797C33.4298 38.9997 33.4098 37.5597 34.3698 36.5997C35.3298 35.6397 36.7898 35.6797 37.8698 36.7197C38.4698 37.2997 39.0698 37.9197 39.6498 38.5197C40.5698 37.5797 41.4298 36.6797 42.4098 35.6597C41.8898 35.1997 41.2698 34.6597 40.6898 34.0797C39.6098 32.9797 39.5698 31.5197 40.5698 30.5397C41.5298 29.5997 42.9898 29.6397 44.0498 30.6997C44.5898 31.2397 45.1298 31.8597 45.6298 32.4197Z" fill="url(#paint1_linear_0_1)"/>
<defs>
<linearGradient id="paint0_linear_0_1" x1="-44.307" y1="81.9598" x2="90.8523" y2="61.0899" gradientUnits="userSpaceOnUse">
<stop stop-color="#383BFE"/>
<stop offset="1" stop-color="#902CF2"/>
</linearGradient>
<linearGradient id="paint1_linear_0_1" x1="2.15732" y1="59.8207" x2="61.9307" y2="50.5549" gradientUnits="userSpaceOnUse">
<stop stop-color="#383BFE"/>
<stop offset="1" stop-color="#902CF2"/>
</linearGradient>
</defs>
</svg>
