<svg width="83" height="83" viewBox="0 0 83 83" fill="none" xmlns="http://www.w3.org/2000/svg">
<path d="M82.3304 38.7998C82.3304 40.3998 82.3304 41.9998 82.3304 43.5998C82.1104 44.1598 82.1904 44.7598 82.1304 45.3198C81.2304 53.4198 78.2904 60.6998 73.0904 66.9998C66.6504 74.7998 58.4504 79.6598 48.4904 81.4598C46.9504 81.7398 45.3904 81.8798 43.8504 82.0998C42.2504 82.0998 40.6504 82.0998 39.0504 82.0998C38.8104 81.9598 38.5304 81.9798 38.2704 81.9598C36.5104 81.8598 34.7704 81.5998 33.0704 81.2198C22.4504 78.8598 13.9304 73.2598 7.79037 64.2998C1.21037 54.6998 -0.869631 44.0798 1.51037 32.6798C3.41037 23.5598 8.03037 15.9798 15.1504 10.0198C23.9504 2.63981 34.1704 -0.520187 45.6104 0.579814C53.7104 1.35981 60.9504 4.39981 67.2304 9.57981C75.0504 16.0198 79.9104 24.2198 81.7104 34.1998C81.9704 35.6998 82.1304 37.2598 82.3304 38.7998ZM43.8504 60.3798C43.8504 65.6798 43.8704 70.9598 43.8304 76.2598C43.8304 77.0998 44.0904 77.1998 44.8104 77.1198C46.5504 76.8998 48.2904 76.6598 49.9904 76.2398C56.1904 74.6998 61.6104 71.7398 66.2304 67.3598C67.0904 66.5398 67.1104 66.5598 66.4304 65.6398C61.7504 59.2998 59.1304 52.1798 58.5304 44.3398C58.4904 43.7598 58.3104 43.5798 57.7104 43.5998C53.3504 43.6198 48.9904 43.6398 44.6304 43.5998C43.9304 43.5998 43.8104 43.8198 43.8304 44.4598C43.8504 49.7398 43.8504 55.0598 43.8504 60.3798ZM39.0504 22.0398C39.0504 16.6998 39.0304 11.3398 39.0704 5.99981C39.0704 5.35981 38.8904 5.19981 38.2704 5.25981C36.4704 5.45981 34.6904 5.71981 32.9304 6.15981C26.6504 7.71981 21.1904 10.7398 16.4904 15.1798C15.9304 15.7198 15.8704 16.0198 16.3504 16.6398C21.1104 22.9998 23.7704 30.1398 24.3704 38.0598C24.4104 38.6998 24.6504 38.8398 25.2504 38.8198C29.5904 38.7998 33.9304 38.7998 38.2504 38.8198C38.9104 38.8198 39.0904 38.6598 39.0904 37.9998C39.0504 32.6798 39.0504 27.3598 39.0504 22.0398ZM43.8504 21.9598C43.8504 27.3398 43.8704 32.6998 43.8304 38.0798C43.8304 38.6798 43.9904 38.8198 44.5904 38.8198C48.9304 38.7998 53.2704 38.7798 57.5904 38.8198C58.3504 38.8198 58.5104 38.5598 58.5504 37.8798C58.8304 33.7598 59.7904 29.7998 61.3104 25.9798C62.6704 22.5598 64.4504 19.3598 66.6904 16.4398C66.9504 16.0998 67.1504 15.8798 66.7104 15.4598C60.5304 9.53982 53.2304 6.13981 44.7104 5.27981C44.0104 5.19981 43.8304 5.35981 43.8304 6.07981C43.8704 11.3598 43.8504 16.6598 43.8504 21.9598ZM39.0504 60.3598C39.0504 55.0198 39.0304 49.6598 39.0704 44.3198C39.0704 43.7198 38.9104 43.5798 38.3104 43.5798C33.9704 43.5998 29.6304 43.6198 25.3104 43.5798C24.5504 43.5798 24.3904 43.8398 24.3504 44.5198C24.0704 48.6398 23.1104 52.5998 21.5904 56.4198C20.2304 59.8398 18.4504 63.0398 16.2104 65.9598C15.9504 66.2998 15.7504 66.5198 16.1904 66.9398C22.3704 72.8598 29.6704 76.2598 38.1904 77.1198C38.8904 77.1998 39.0704 77.0398 39.0704 76.3198C39.0304 70.9998 39.0504 65.6798 39.0504 60.3598ZM70.2904 19.5998C66.2104 25.2198 63.8704 31.4198 63.3104 38.2798C63.2504 38.8998 63.6104 38.8198 63.9904 38.8198C68.2104 38.8198 72.4504 38.7998 76.6704 38.8398C77.3104 38.8398 77.4704 38.6798 77.4104 38.0398C76.9304 32.8398 75.4104 27.9598 72.8304 23.4198C72.0704 22.0798 71.2704 20.8198 70.2904 19.5998ZM12.6104 62.7998C13.5704 61.5198 14.4104 60.2198 15.1504 58.8798C17.6704 54.3598 19.1304 49.5198 19.5904 44.3798C19.6504 43.7198 19.4504 43.5798 18.8504 43.5998C17.2104 43.6398 15.5504 43.6198 13.9104 43.6198C11.3304 43.6198 8.75037 43.6398 6.17037 43.5998C5.59037 43.5998 5.41037 43.7598 5.53037 44.3198C5.57037 44.4798 5.55037 44.6398 5.57037 44.7998C6.05037 49.6198 7.45037 54.1598 9.75037 58.3998C10.5704 59.9198 11.4904 61.3998 12.6104 62.7998ZM12.5104 38.7998C14.6704 38.7998 16.8104 38.7798 18.9704 38.8198C19.4904 38.8198 19.6704 38.6798 19.5904 38.1398C19.4504 37.2198 19.3904 36.2998 19.2504 35.3798C18.3504 29.7798 16.2504 24.6798 12.9504 20.0598C12.7704 19.7998 12.6504 19.4798 12.3104 19.9598C8.37037 25.4398 6.09037 31.4998 5.51037 38.2398C5.47037 38.8198 5.73037 38.8198 6.15037 38.8198C8.25037 38.7998 10.3904 38.7998 12.5104 38.7998ZM70.2904 62.7998C71.2704 61.5998 72.0704 60.3198 72.8104 58.9998C75.4104 54.4398 76.9304 49.5398 77.3904 44.2998C77.4304 43.7398 77.3104 43.5798 76.7304 43.5798C72.4504 43.5998 68.1704 43.5998 63.8904 43.5798C63.4104 43.5798 63.2504 43.6798 63.2904 44.1998C63.4504 45.9798 63.7104 47.7398 64.1104 49.4598C65.2704 54.3198 67.3104 58.7398 70.2904 62.7998Z" fill="url(#paint0_linear_489_92)"/>
<defs>
<linearGradient id="paint0_linear_489_92" x1="-44.0821" y1="82.0998" x2="91.7459" y2="61.0117" gradientUnits="userSpaceOnUse">
<stop stop-color="#383BFE"/>
<stop offset="1" stop-color="#902CF2"/>
</linearGradient>
</defs>
</svg>
