<svg width="201" height="201" viewBox="0 0 201 201" fill="none" xmlns="http://www.w3.org/2000/svg">
<circle cx="100.833" cy="100.164" r="100.164" fill="url(#paint0_linear_0_1)"/>
<g clip-path="url(#clip0_0_1)">
<path d="M69.344 58.5334C69.9318 57.8462 70.6614 57.2945 71.4827 56.9163C72.3041 56.5381 73.1976 56.3422 74.1018 56.3423H127.565C128.469 56.3422 129.362 56.5381 130.184 56.9163C131.005 57.2945 131.735 57.8462 132.322 58.5334L148.655 77.5897C150.114 79.2914 150.915 81.4586 150.915 83.6997V85.2961C150.916 88.3948 149.948 91.4161 148.147 93.9379C146.347 96.4597 143.803 98.3558 140.872 99.3613C137.941 100.367 134.769 100.431 131.799 99.5462C128.83 98.6609 126.211 96.8699 124.309 94.4236C122.92 96.2126 121.14 97.66 119.106 98.655C117.071 99.6501 114.836 100.166 112.571 100.164C110.306 100.167 108.071 99.6507 106.036 98.6557C104.002 97.6606 102.222 96.2129 100.833 94.4236C99.4446 96.2129 97.6648 97.6606 95.6302 98.6557C93.5956 99.6507 91.3601 100.167 89.0952 100.164C86.8303 100.167 84.5948 99.6507 82.5602 98.6557C80.5256 97.6606 78.7457 96.2129 77.3572 94.4236C75.4552 96.8699 72.8365 98.6609 69.867 99.5462C66.8974 100.431 63.7255 100.367 60.7945 99.3613C57.8635 98.3558 55.3199 96.4597 53.5192 93.9379C51.7185 91.4161 50.7506 88.3948 50.751 85.2961V83.6997C50.7511 81.4586 51.5526 79.2914 53.0109 77.5897L69.3503 58.5271L69.344 58.5334ZM80.4873 85.2961C80.4873 87.579 81.3942 89.7685 83.0085 91.3828C84.6228 92.9971 86.8122 93.904 89.0952 93.904C91.3781 93.904 93.5676 92.9971 95.1819 91.3828C96.7962 89.7685 97.7031 87.579 97.7031 85.2961C97.7031 84.4659 98.0329 83.6698 98.6199 83.0827C99.2069 82.4957 100.003 82.1659 100.833 82.1659C101.663 82.1659 102.46 82.4957 103.047 83.0827C103.634 83.6698 103.963 84.4659 103.963 85.2961C103.963 87.579 104.87 89.7685 106.485 91.3828C108.099 92.9971 110.288 93.904 112.571 93.904C114.854 93.904 117.044 92.9971 118.658 91.3828C120.272 89.7685 121.179 87.579 121.179 85.2961C121.179 84.4659 121.509 83.6698 122.096 83.0827C122.683 82.4957 123.479 82.1659 124.309 82.1659C125.139 82.1659 125.936 82.4957 126.523 83.0827C127.11 83.6698 127.439 84.4659 127.439 85.2961C127.439 87.579 128.346 89.7685 129.961 91.3828C131.575 92.9971 133.764 93.904 136.047 93.904C138.33 93.904 140.52 92.9971 142.134 91.3828C143.748 89.7685 144.655 87.579 144.655 85.2961V83.6997C144.655 82.9537 144.389 82.2321 143.904 81.6651L127.565 62.6026H74.1018L57.7625 81.6651C57.2776 82.2321 57.0112 82.9537 57.0113 83.6997V85.2961C57.0113 87.579 57.9182 89.7685 59.5324 91.3828C61.1467 92.9971 63.3362 93.904 65.6191 93.904C67.9021 93.904 70.0915 92.9971 71.7058 91.3828C73.3201 89.7685 74.227 87.579 74.227 85.2961C74.227 84.4659 74.5568 83.6698 75.1438 83.0827C75.7308 82.4957 76.527 82.1659 77.3572 82.1659C78.1873 82.1659 78.9835 82.4957 79.5705 83.0827C80.1575 83.6698 80.4873 84.4659 80.4873 85.2961ZM60.1414 103.294C60.9716 103.294 61.7677 103.624 62.3547 104.211C62.9418 104.798 63.2715 105.594 63.2715 106.425V143.986H138.395V106.425C138.395 105.594 138.725 104.798 139.312 104.211C139.899 103.624 140.695 103.294 141.525 103.294C142.355 103.294 143.151 103.624 143.738 104.211C144.325 104.798 144.655 105.594 144.655 106.425V143.986H147.785C148.615 143.986 149.412 144.316 149.999 144.903C150.586 145.49 150.915 146.286 150.915 147.116C150.915 147.947 150.586 148.743 149.999 149.33C149.412 149.917 148.615 150.246 147.785 150.246H53.8811C53.051 150.246 52.2548 149.917 51.6678 149.33C51.0808 148.743 50.751 147.947 50.751 147.116C50.751 146.286 51.0808 145.49 51.6678 144.903C52.2548 144.316 53.051 143.986 53.8811 143.986H57.0113V106.425C57.0113 105.594 57.341 104.798 57.9281 104.211C58.5151 103.624 59.3112 103.294 60.1414 103.294ZM72.662 106.425C73.4921 106.425 74.2883 106.754 74.8753 107.341C75.4623 107.928 75.7921 108.724 75.7921 109.555V131.466H125.874V109.555C125.874 108.724 126.204 107.928 126.791 107.341C127.378 106.754 128.174 106.425 129.004 106.425C129.835 106.425 130.631 106.754 131.218 107.341C131.805 107.928 132.135 108.724 132.135 109.555V131.466C132.135 133.126 131.475 134.718 130.301 135.892C129.127 137.066 127.535 137.726 125.874 137.726H75.7921C74.1318 137.726 72.5394 137.066 71.3654 135.892C70.1914 134.718 69.5318 133.126 69.5318 131.466V109.555C69.5318 108.724 69.8616 107.928 70.4486 107.341C71.0356 106.754 71.8318 106.425 72.662 106.425Z" fill="white"/>
</g>
<defs>
<linearGradient id="paint0_linear_0_1" x1="-108.694" y1="200.329" x2="224.072" y2="148.689" gradientUnits="userSpaceOnUse">
<stop stop-color="#383BFE"/>
<stop offset="1" stop-color="#902CF2"/>
</linearGradient>
<clipPath id="clip0_0_1">
<rect width="100.164" height="100.164" fill="white" transform="translate(50.752 50.0825)"/>
</clipPath>
</defs>
</svg>
