<?xml version="1.0" standalone="no"?>
<!DOCTYPE svg PUBLIC "-//W3C//DTD SVG 20010904//EN"
 "http://www.w3.org/TR/2001/REC-SVG-20010904/DTD/svg10.dtd">
<svg version="1.0" xmlns="http://www.w3.org/2000/svg"
 width="821.000000pt" height="821.000000pt" viewBox="0 0 821.000000 821.000000"
 preserveAspectRatio="xMidYMid meet">
<metadata>
Created by potrace 1.14, written by Peter Selinger 2001-2017
</metadata>
<g transform="translate(0.000000,821.000000) scale(0.100000,-0.100000)"
fill="#000000" stroke="none">
<path d="M605 8195 c-33 -6 -68 -15 -77 -19 -10 -3 -26 -9 -35 -13 -10 -3 -24
-7 -32 -9 -34 -7 -176 -103 -231 -157 -73 -70 -148 -181 -178 -263 -55 -150
-52 102 -49 -3649 2 -3286 3 -3463 20 -3520 16 -54 63 -157 102 -225 26 -45
115 -138 176 -184 77 -58 166 -101 266 -128 l78 -21 3425 -1 c1884 -1 3452 2
3485 6 327 43 602 315 642 638 3 30 7 1596 7 3480 l0 3425 -22 84 c-42 161
-135 307 -260 407 -65 52 -188 115 -277 141 -57 17 -237 18 -3520 20 -2749 1
-3472 -2 -3520 -12z"/>
</g>
</svg>
