<svg width="14" height="15" viewBox="0 0 14 15" fill="none" xmlns="http://www.w3.org/2000/svg">
<path d="M13.9549 4.13905C13.9471 3.55024 13.8368 2.96728 13.6292 2.41626C13.4491 1.95147 13.174 1.52936 12.8215 1.1769C12.4691 0.824438 12.047 0.549373 11.5822 0.36928C11.0382 0.165093 10.4636 0.0546856 9.88272 0.0427588C9.13483 0.00932924 8.89771 0 6.99922 0C5.10073 0 4.8574 4.96485e-08 4.11495 0.0427588C3.53433 0.0547733 2.95996 0.16518 2.41626 0.36928C1.9514 0.549248 1.52923 0.824268 1.17675 1.17675C0.824268 1.52923 0.549248 1.9514 0.36928 2.41626C0.164684 2.95979 0.054516 3.53429 0.0435362 4.11495C0.0101066 4.86362 0 5.10073 0 6.99922C0 8.89771 -9.9297e-09 9.14027 0.0435362 9.8835C0.0551977 10.465 0.164816 11.0388 0.36928 11.5837C0.549549 12.0485 0.824775 12.4705 1.17737 12.8228C1.52997 13.1751 1.95218 13.45 2.41704 13.6299C2.95924 13.8423 3.53372 13.9606 4.11573 13.9798C4.86439 14.0132 5.10151 14.0233 7 14.0233C8.89849 14.0233 9.14183 14.0233 9.88428 13.9798C10.4651 13.9684 11.0398 13.8582 11.5837 13.654C12.0484 13.4737 12.4704 13.1986 12.8228 12.8462C13.1753 12.4937 13.4504 12.0717 13.6307 11.6071C13.8352 11.0629 13.9448 10.4891 13.9565 9.90682C13.9899 9.15893 14 8.92181 14 7.02255C13.9984 5.12406 13.9984 4.88305 13.9549 4.13905ZM6.99456 10.5894C5.009 10.5894 3.40049 8.9809 3.40049 6.99534C3.40049 5.00977 5.009 3.40127 6.99456 3.40127C7.94777 3.40127 8.86193 3.77993 9.53595 4.45395C10.21 5.12796 10.5886 6.04213 10.5886 6.99534C10.5886 7.94854 10.21 8.86271 9.53595 9.53673C8.86193 10.2107 7.94777 10.5894 6.99456 10.5894ZM10.7317 4.1064C10.2675 4.1064 9.8936 3.73168 9.8936 3.26833C9.8936 3.15832 9.91527 3.04939 9.95737 2.94776C9.99947 2.84613 10.0612 2.75378 10.139 2.67599C10.2167 2.59821 10.3091 2.5365 10.4107 2.49441C10.5124 2.45231 10.6213 2.43064 10.7313 2.43064C10.8413 2.43064 10.9502 2.45231 11.0519 2.49441C11.1535 2.5365 11.2458 2.59821 11.3236 2.67599C11.4014 2.75378 11.4631 2.84613 11.5052 2.94776C11.5473 3.04939 11.569 3.15832 11.569 3.26833C11.569 3.73168 11.1942 4.1064 10.7317 4.1064Z" fill="white"/>
<path d="M6.99455 9.33125C8.28393 9.33125 9.32917 8.286 9.32917 6.99662C9.32917 5.70724 8.28393 4.66199 6.99455 4.66199C5.70517 4.66199 4.65992 5.70724 4.65992 6.99662C4.65992 8.286 5.70517 9.33125 6.99455 9.33125Z" fill="white"/>
</svg>
